<svg width="271" height="90" viewBox="0 0 271 90" fill="none" xmlns="http://www.w3.org/2000/svg">
<g clip-path="url(#clip0_17_3)">
<path d="M60.1117 50.6349C63.2358 50.6349 65.7683 48.1121 65.7683 45C65.7683 41.8879 63.2358 39.3651 60.1117 39.3651C56.9876 39.3651 54.4551 41.8879 54.4551 45C54.4551 48.1121 56.9876 50.6349 60.1117 50.6349Z" fill="#272E63"/>
<path d="M13.8229 34.246C14.1749 34.246 14.4603 33.9618 14.4603 33.6111C14.4603 33.2605 14.1749 32.9762 13.8229 32.9762C13.4709 32.9762 13.1855 33.2605 13.1855 33.6111C13.1855 33.9618 13.4709 34.246 13.8229 34.246Z" fill="#C21718"/>
<path d="M21.0332 24.6429C21.8032 24.6429 22.4274 24.021 22.4274 23.254C22.4274 22.4869 21.8032 21.8651 21.0332 21.8651C20.2631 21.8651 19.6389 22.4869 19.6389 23.254C19.6389 24.021 20.2631 24.6429 21.0332 24.6429Z" fill="#C21718"/>
<path d="M31.7489 18.8095C33.025 18.8095 34.0594 17.779 34.0594 16.5079C34.0594 15.2368 33.025 14.2063 31.7489 14.2063C30.4729 14.2063 29.4385 15.2368 29.4385 16.5079C29.4385 17.779 30.4729 18.8095 31.7489 18.8095Z" fill="#C21718"/>
<path d="M44.2572 17.6984C46.0392 17.6984 47.4838 16.2593 47.4838 14.4841C47.4838 12.7089 46.0392 11.2698 44.2572 11.2698C42.4751 11.2698 41.0305 12.7089 41.0305 14.4841C41.0305 16.2593 42.4751 17.6984 44.2572 17.6984Z" fill="#C21718"/>
<path d="M56.5663 21.4682C58.7663 21.4682 60.5498 19.6916 60.5498 17.5C60.5498 15.3084 58.7663 13.5317 56.5663 13.5317C54.3663 13.5317 52.5828 15.3084 52.5828 17.5C52.5828 19.6916 54.3663 21.4682 56.5663 21.4682Z" fill="#C21718"/>
<path d="M66.7242 29.4047C69.1442 29.4047 71.1061 27.4504 71.1061 25.0397C71.1061 22.6289 69.1442 20.6746 66.7242 20.6746C64.3041 20.6746 62.3423 22.6289 62.3423 25.0397C62.3423 27.4504 64.3041 29.4047 66.7242 29.4047Z" fill="#C21718"/>
<path d="M73.1379 40.4365C75.6239 40.4365 77.6393 38.4289 77.6393 35.9524C77.6393 33.4759 75.6239 31.4683 73.1379 31.4683C70.6518 31.4683 68.6365 33.4759 68.6365 35.9524C68.6365 38.4289 70.6518 40.4365 73.1379 40.4365Z" fill="#C21718"/>
<path d="M74.7312 52.7381C77.1072 52.7381 79.0334 50.8193 79.0334 48.4524C79.0334 46.0854 77.1072 44.1667 74.7312 44.1667C72.3551 44.1667 70.429 46.0854 70.429 48.4524C70.429 50.8193 72.3551 52.7381 74.7312 52.7381Z" fill="#C21718"/>
<path d="M71.3054 64.3651C73.3954 64.3651 75.0897 62.6772 75.0897 60.5952C75.0897 58.5132 73.3954 56.8254 71.3054 56.8254C69.2153 56.8254 67.521 58.5132 67.521 60.5952C67.521 62.6772 69.2153 64.3651 71.3054 64.3651Z" fill="#C21718"/>
<path d="M63.378 73.4524C65.0281 73.4524 66.3657 72.1199 66.3657 70.4762C66.3657 68.8325 65.0281 67.5 63.378 67.5C61.728 67.5 60.3904 68.8325 60.3904 70.4762C60.3904 72.1199 61.728 73.4524 63.378 73.4524Z" fill="#C21718"/>
<path d="M52.2242 78.4524C53.3463 78.4524 54.2558 77.5463 54.2558 76.4286C54.2558 75.3108 53.3463 74.4048 52.2242 74.4048C51.1022 74.4048 50.1926 75.3108 50.1926 76.4286C50.1926 77.5463 51.1022 78.4524 52.2242 78.4524Z" fill="#C21718"/>
<path d="M39.5963 78.7302C40.2124 78.7302 40.7117 78.2327 40.7117 77.619C40.7117 77.0054 40.2124 76.5079 39.5963 76.5079C38.9803 76.5079 38.481 77.0054 38.481 77.619C38.481 78.2327 38.9803 78.7302 39.5963 78.7302Z" fill="#C21718"/>
<path d="M13.305 78.6905C13.2254 78.7698 11.2734 78.5714 11.2734 76.6667C11.2734 76.1111 11.2734 60.3571 21.2721 45.6349C32.7049 28.8095 43.0222 24.9206 44.1775 24.6032C45.4522 24.2064 46.8464 24.4445 47.9618 25.2381C49.0374 26.0318 49.6747 27.2619 49.6747 28.6111V61.2302C49.6747 63.4127 48.0016 65.2381 45.8107 65.3968C45.492 65.4365 37.8436 66.2698 30.9919 61.5476C29.0798 60.2381 28.6018 57.6191 29.9562 55.7143C31.3106 53.8095 33.9398 53.3333 35.8519 54.6825C37.6843 55.9524 39.5964 56.3492 41.2296 56.7064V35.873C34.6966 39.3651 29.9961 45 26.7296 49.5238C17.8861 61.7064 15.4562 73.373 15.3765 76.6667C15.257 78.6905 13.305 78.6905 13.305 78.6905Z" fill="#272E63"/>
<path d="M121.02 58.5714L118.988 61.746C117.116 61.3889 115.363 60.5159 114.208 58.6508C111.977 60.3968 108.87 61.9048 104.807 61.9048C96.9992 61.9048 90.3069 56.5079 90.3069 47.3016C90.3069 38.0952 97.0391 32.4206 104.807 32.4206C108.352 32.4206 111.539 33.6508 114.049 35.5952L115.045 33.2143H117.953V53.9682C117.992 56.1905 119.387 57.7778 121.02 58.5714ZM113.292 55.0397V38.9682C111.34 37.3809 108.671 36.1508 105.564 36.1508C99.5885 36.1508 95.0075 40.6746 95.0075 47.3016C95.0075 53.6508 99.5487 58.0159 105.564 58.0159C108.751 58.0555 111.141 56.9048 113.292 55.0397Z" fill="#272E63"/>
<path d="M140.101 61.3095H133.528L122.852 33.1746H127.911L136.954 58.1349L145.917 33.1746H150.896L140.101 61.3095Z" fill="#272E63"/>
<path d="M183.601 58.5714L181.57 61.746C179.697 61.3889 177.945 60.5159 176.789 58.6508C174.559 60.3968 171.451 61.9048 167.388 61.9048C159.581 61.9048 152.888 56.5079 152.888 47.3016C152.888 38.0952 159.62 32.4206 167.388 32.4206C170.934 32.4206 174.12 33.6508 176.63 35.5952L177.626 33.2143H180.534V53.9682C180.534 56.1905 181.928 57.7778 183.601 58.5714ZM175.873 55.0397V38.9682C173.921 37.3809 171.252 36.1508 168.145 36.1508C162.17 36.1508 157.589 40.6746 157.589 47.3016C157.589 53.6508 162.13 58.0159 168.145 58.0159C171.292 58.0555 173.682 56.9048 175.873 55.0397Z" fill="#272E63"/>
<path d="M187.545 54.5238V17.9365L192.166 16.8651V54.0873C192.166 56.6667 192.963 58.1746 195.552 58.6111L194.317 61.8651C190.094 61.4286 187.545 59.6429 187.545 54.5238Z" fill="#272E63"/>
<path d="M225.827 61.3095H222.919L221.963 58.6508C219.055 61.0317 215.549 61.9047 212.203 61.9047C206.148 61.9047 199.496 58.4524 199.496 48.9682V33.1746H204.117V48.8492C204.117 54.9603 207.861 58.0555 212.84 58.0555C216.107 58.0555 219.214 56.9047 221.166 55.1587V33.1746H225.787V61.3095H225.827Z" fill="#272E63"/>
<path d="M259.727 46.5476V61.3095H255.106V46.627C255.106 40.0794 251.72 36.1905 246.023 36.1905C242.837 36.1905 239.809 37.4206 237.698 39.127V61.2698H233.077V33.1746H235.905L236.981 35.9127C239.809 33.4127 243.394 32.381 246.74 32.381C252.835 32.381 259.727 35.8333 259.727 46.5476Z" fill="#272E63"/>
</g>
<defs>
<clipPath id="clip0_17_3">
<rect width="271" height="90" fill="white"/>
</clipPath>
</defs>
</svg>
